<?xml version="1.0" standalone="no"?>
<!DOCTYPE svg PUBLIC "-//W3C//DTD SVG 20010904//EN"
 "http://www.w3.org/TR/2001/REC-SVG-20010904/DTD/svg10.dtd">
<svg version="1.0" xmlns="http://www.w3.org/2000/svg"
 width="473.000000pt" height="193.000000pt" viewBox="0 0 473.000000 193.000000"
 preserveAspectRatio="xMidYMid meet">

<g transform="translate(0.000000,193.000000) scale(0.100000,-0.100000)"
fill="#DB222A" stroke="none">
<path d="M1887 1913 c-4 -3 -7 -35 -7 -70 l0 -63 50 0 50 0 0 70 0 70 -43 0
c-24 0 -47 -3 -50 -7z"/>
<path d="M4490 1851 l0 -71 50 0 51 0 -3 68 -3 67 -47 3 -48 3 0 -70z"/>
<path d="M1525 1838 c-2 -13 -8 -45 -13 -73 -7 -47 -9 -50 -40 -53 -30 -3 -32
-6 -32 -43 0 -37 2 -39 30 -39 l30 0 0 -213 0 -213 53 -52 53 -52 77 0 77 0 0
40 0 40 -51 0 c-44 0 -54 4 -80 32 l-29 32 0 193 0 193 65 0 65 0 0 40 0 40
-65 0 -65 0 0 75 0 75 -35 0 c-28 0 -36 -4 -40 -22z"/>
<path d="M4121 1785 l-12 -75 -35 0 c-33 0 -34 -1 -34 -39 0 -37 2 -40 33 -43
l32 -3 3 -210 2 -210 52 -52 52 -53 73 0 73 0 0 40 0 40 -48 0 c-41 0 -53 5
-80 33 l-32 33 2 190 3 189 63 3 62 3 0 39 0 40 -65 0 -65 0 0 75 0 75 -34 0
-33 0 -12 -75z"/>
<path d="M120 1665 l0 -45 149 0 150 0 25 -33 c17 -22 26 -47 26 -70 l0 -37
-153 0 -153 0 -62 -63 -62 -63 0 -65 0 -65 63 -62 63 -62 104 0 104 0 48 47
48 47 0 -47 0 -47 50 0 50 0 0 243 0 243 -63 62 -63 62 -162 0 -162 0 0 -45z
m350 -318 c0 -53 -1 -55 -59 -110 l-60 -57 -72 0 c-69 0 -75 2 -106 32 -28 27
-33 39 -33 77 0 37 6 51 32 78 l32 33 133 0 133 0 0 -53z"/>
<path d="M760 1405 l0 -305 50 0 50 0 0 198 0 197 66 68 66 67 78 0 c77 0 78
-1 109 -35 l31 -36 0 -229 0 -230 50 0 50 0 0 241 0 241 -62 64 -61 64 -111 0
-110 0 -53 -52 -53 -52 0 52 0 52 -50 0 -50 0 0 -305z"/>
<path d="M1880 1405 l0 -305 50 0 50 0 0 305 0 305 -50 0 -50 0 0 -305z"/>
<path d="M2730 1665 l0 -45 143 0 143 0 33 -34 c26 -27 32 -40 29 -67 l-3 -34
-155 -3 -155 -3 -57 -56 -58 -57 0 -73 0 -72 56 -60 56 -61 107 0 107 0 44 45
c24 25 48 45 52 45 4 0 8 -20 8 -45 l0 -45 45 0 45 0 0 248 0 248 -58 57 -58
57 -162 0 -162 0 0 -45z m350 -312 c0 -45 -4 -51 -62 -110 l-62 -63 -70 0
c-65 0 -72 2 -103 32 -29 28 -33 38 -33 82 0 41 5 55 27 78 l27 28 138 0 138
0 0 -47z"/>
<path d="M3360 1405 l0 -305 50 0 50 0 0 196 0 196 67 69 66 69 78 0 c75 0 79
-1 108 -32 l31 -33 0 -232 0 -233 50 0 50 0 0 246 0 245 -57 60 -56 59 -111 0
-112 0 -49 -50 c-27 -27 -53 -50 -57 -50 -4 0 -8 23 -8 50 l0 50 -50 0 -50 0
0 -305z"/>
<path d="M4490 1405 l0 -305 50 0 50 0 0 305 0 305 -50 0 -50 0 0 -305z"/>
<path d="M2157 1483 c-4 -3 -7 -24 -7 -45 l0 -38 190 0 190 0 0 45 0 45 -183
0 c-101 0 -187 -3 -190 -7z"/>
<path d="M97 797 l-58 -52 1 -142 0 -141 59 -51 59 -51 151 0 151 0 0 -50 0
-50 -195 0 -195 0 0 -105 0 -105 283 0 282 0 63 52 62 52 0 151 0 151 -62 52
-63 52 -152 0 -153 0 0 40 0 40 193 2 192 3 3 103 3 102 -283 0 -283 0 -58
-53z"/>
<path d="M897 797 l-57 -52 0 -296 0 -296 59 -52 59 -51 264 0 263 0 63 52 62
52 0 296 0 296 -62 52 -63 52 -265 0 -265 -1 -58 -52z m403 -347 l0 -230 -80
0 -80 0 0 230 0 230 80 0 80 0 0 -230z"/>
<path d="M1758 799 l-58 -51 0 -298 0 -298 58 -51 57 -51 263 0 264 0 59 51
59 52 0 118 0 119 -155 0 -155 0 0 -85 0 -85 -75 0 -75 0 0 230 0 230 75 0 75
0 0 -80 0 -80 155 0 155 0 0 113 0 113 -62 52 -63 52 -260 0 -260 0 -57 -51z"/>
<path d="M2540 746 l0 -105 53 -3 52 -3 0 -185 0 -185 -52 -3 -53 -3 0 -105 0
-104 250 0 250 0 0 105 0 105 -50 0 -50 0 0 190 0 190 50 0 50 0 0 105 0 105
-250 0 -250 0 0 -104z"/>
<path d="M3265 828 c-3 -13 -43 -193 -88 -401 l-83 -377 158 0 c177 0 158 -9
173 83 l6 37 104 0 104 0 7 -60 7 -60 158 0 c88 0 159 4 159 8 0 5 -38 183
-85 396 -47 213 -85 390 -85 392 0 2 -119 4 -265 4 l-265 0 -5 -22z m289 -167
c6 -10 46 -247 46 -273 0 -16 -10 -18 -71 -18 -62 0 -70 2 -65 18 2 9 12 64
21 122 23 156 24 160 45 160 10 0 21 -4 24 -9z"/>
<path d="M4040 450 l0 -400 315 0 316 0 -3 113 -3 112 -157 3 -158 3 0 284 0
285 -155 0 -155 0 0 -400z"/>
</g>
</svg>
